<svg xmlns="http://www.w3.org/2000/svg" viewBox="0 0 64 64" id="clean-energy">
  <path d="M22.07151 49.05871c-.00908 1.79758 1.50168 3.23426 3.23387 3.23035.26777-.06594 14.67547.16993 14.41718-.15988 1.30167-.41019 2.25282-1.6303 2.25282-3.07047v-.77011h-19.90387v.77011zM39.65259 27.45614c-2.1099.78566-4.03547 1.94878-5.71687 3.48045 0 0 2.19263 0 2.19263 0 4.2251 0 7.65921-3.44041 7.65921-7.65092v-1.03009c-1.56187.68007-3.17379 1.08008-4.74568 1.47014-3.23596.51909-5.99283 2.33768-6.52775 5.80083 1.90713-1.73755 4.05234-3.08252 6.45766-3.94062.52064-.19003 1.09133.07001 1.2815.59009.19023.52008-.08005 1.09009-.6007 1.28012z"></path>
  <path d="M45.36946 9.08399C33.5892-1.673 14.04449 5.66594 12.14974 21.48572c-.83111 6.85053 1.83206 13.56134 7.12845 17.93185 1.77208 1.46019 2.79333 3.6604 2.79333 6.03074v.84006h5.94713v-7.01083c.05053-3.51341-1.58872-6.48978-4.23512-8.64093-.42048-.36012-.47053-.9902-.11011-1.41024 1.16519-1.24358 2.74902 1.30439 3.58439 2.05011.7432.93639 1.30343 1.89697 1.76204 2.94047.37793-.90269.89462-1.75142 1.47174-2.53027-.67342-5.24581 3.09304-9.19802 8.06983-9.89098 2.02229-.51026 3.94458-1.00031 5.72674-2.02045.63464-.39408 1.52741.12098 1.50178.87013.00002-.00003.00002 2.64029.00002 2.64029 0 5.32063-4.33521 9.65116-9.66161 9.65116h-4.07483c-1.37322 1.85166-2.03682 3.93161-2.03246 6.34071v7.01083s11.95433 0 11.95433 0c-.16948-2.62704.78657-5.23687 2.84349-6.91077 9.35197-7.50495 9.60539-22.4521.55059-30.29361zm-.53067 7.04087c-.4493.30382-1.07374.22201-1.39168-.24002-.92109-1.28018-2.0324-2.38029-3.30395-3.29043-.45055-.32004-.56067-.95012-.23026-1.40013.32039-.45007.94113-.55011 1.39168-.23007 1.46171 1.04016 2.72324 2.30026 3.76452 3.76045.32033.45007.22023 1.07013-.23032 1.40019zM25.30537 54.28931c-.26026 0-.51056-.02002-.76086-.06.87104 3.31039 3.89462 5.7707 7.47894 5.7707s6.6079-2.46031 7.47894-5.7707c-.24028.03998-.5006.06-.76086.06h-13.43615z"></path>
</svg>
