<svg xmlns="http://www.w3.org/2000/svg" viewBox="0 0 48 48" id="conversion">
  <path d="M16.32 13.66c3.63 0 6.58-2.95 6.58-6.58S19.95.5 16.32.5 9.74 3.45 9.74 7.08s2.96 6.58 6.58 6.58zm0-10.16a3.59 3.59 0 0 1 3.58 3.58c0 1.97-1.61 3.58-3.58 3.58s-3.58-1.61-3.58-3.58a3.59 3.59 0 0 1 3.58-3.58zM17.7 40.55h3v6.95h-3zM22.5 40.55h3v6.95h-3zM27.3 40.55h3v6.95h-3zM30.36 8.88c1.96 0 3.59 1.37 4.04 3.19h3.05c-.48-3.49-3.47-6.19-7.09-6.19-3.62 0-6.62 2.7-7.1 6.19h3.05c.45-1.83 2.09-3.19 4.05-3.19zm14.36 6.1c-.24-.55-.78-.91-1.38-.91H4.66a1.498 1.498 0 0 0-1.08 2.54l10.75 11.17v9.74c0 .83.67 1.5 1.5 1.5h16.34c.83 0 1.5-.67 1.5-1.5v-9.74l10.75-11.17c.42-.43.54-1.07.3-1.63z"></path>
</svg>
