<svg xmlns="http://www.w3.org/2000/svg" enable-background="new 0 0 32 32" viewBox="0 0 32 32" id="garbage">
  <path d="M25.974,10.229l-4,17C21.867,27.681,21.464,28,21,28h-6.424C14.846,27.386,15,26.712,15,26
	c0-3.139-2.886-5.534-6-4.899V11H7c-0.553,0-1-0.448-1-1s0.447-1,1-1h3h15c0.306,0,0.595,0.14,0.784,0.379
	C25.974,9.619,26.043,9.932,25.974,10.229z"></path>
  <path d="M13 26c0 1.657-1.343 3-3 3s-3-1.343-3-3 1.343-3 3-3S13 24.343 13 26zM17 3c4.062 0 6.406 1.594 7 4H11C11.937 4.688 14.094 3 17 3z"></path>
</svg>
