<svg xmlns="http://www.w3.org/2000/svg" viewBox="0 0 467.938 467.938" id="earn-money">
  <path d="M233.969 234.075c-64.99 0-117.675 52.352-117.675 116.931 0 64.58 52.685 116.932 117.675 116.932s117.675-52.352 117.675-116.932c0-64.579-52.685-116.931-117.675-116.931zm12.325 174.866v19.206H221.52v-17.785c-10.173-1.28-19.83-5.067-27.947-11.324l8.932-24.594c8.554 6.047 17.693 11.047 28.535 11.047 8.354 0 13.752-3.892 13.752-9.916 0-4.101-1.853-8.638-15.297-14.011-16.309-6.303-32.987-15.51-32.987-35.982 0-15.721 10.037-28.349 26.228-33.04v-18.678h24.598v17.157c8.694 1.161 16.862 4.611 24.226 9.304l-9.318 24.217c-7.664-4.934-16.162-8.877-25.468-8.877-7.198 0-11.496 2.94-11.496 7.864 0 4.242 2.49 7.149 17.248 13.169 21.586 8.678 31.213 20.299 31.213 37.679 0 16.152-10.758 29.681-27.445 34.564zm43.348-358.317L245.161 4.679c-6.038-6.239-16.345-6.239-22.384 0l-44.482 45.944 22.384 21.647 17.716-18.298v122.011h31.148V53.973l17.716 18.298 22.383-21.647zm153.327 55.35L398.487 60.03c-6.038-6.239-16.345-6.239-22.384 0l-44.482 45.944 22.384 21.648 17.716-18.298v122.01h31.148v-122.01l17.716 18.298 22.384-21.648zm-306.653 0L91.834 60.03c-6.038-6.239-16.345-6.239-22.384 0l-44.482 45.944 22.384 21.648 17.716-18.298v122.01h31.148v-122.01l17.716 18.298 22.384-21.648z"></path>
</svg>
