<svg xmlns="http://www.w3.org/2000/svg" viewBox="0 0 64 64" id="trash">
  <path d="m28.382 12-1.276-2.553a1 1 0 0 1 1.789-.895l1.724 3.447h2.764l1.724-3.447a1 1 0 0 1 1.789.895L35.62 12h4.049l5.333-8c-3-2-6-2-8 0-1-3-3.58-3.77-5-4-1.42.23-4 1-5 4-2-2-5-2-8 0l5.333 8h4.049ZM25 14h14v5H25zM35.043 43.793l6.043-6.043-2.336-2.336-6.043 6.043a.999.999 0 0 1-1.414 0l-6.043-6.043-2.336 2.336 6.043 6.043a.999.999 0 0 1 0 1.414l-6.043 6.043 2.336 2.336 6.043-6.043a.997.997 0 0 1 1.414 0l6.043 6.043 2.336-2.336-6.043-6.043a.999.999 0 0 1 0-1.414Z"></path>
  <path d="M51.44 31.48 39 21H25L12.56 31.48a18.467 18.467 0 0 0-4.84 6.32A18.441 18.441 0 0 0 6 45.57C6 55.75 14.25 64 24.43 64h15.14c5.09 0 9.7-2.06 13.03-5.4 3.34-3.33 5.4-7.94 5.4-13.03 0-5.43-2.4-10.59-6.56-14.09ZM13 39a1 1 0 1 1 0-2 1 1 0 0 1 0 2Zm2.015-3.056a1 1 0 0 1 .121-1.409l8.67-7.3a1 1 0 1 1 1.288 1.529l-8.67 7.3c-.188.158-.936.383-1.409-.12Zm24.442 19.763a.997.997 0 0 1-1.414 0L32 49.664l-6.043 6.043a.999.999 0 0 1-1.414 0l-3.75-3.75a.999.999 0 0 1 0-1.414l6.043-6.043-6.043-6.043a.999.999 0 0 1 0-1.414l3.75-3.75a.999.999 0 0 1 1.414 0L32 39.336l6.043-6.043a.999.999 0 0 1 1.414 0l3.75 3.75a.999.999 0 0 1 0 1.414L37.164 44.5l6.043 6.043a.999.999 0 0 1 0 1.414l-3.75 3.75Zm12.78-3.228a14.376 14.376 0 0 1-10.057 7.284c-.061.012-.952.263-1.164-.803a1 1 0 0 1 .803-1.164 12.391 12.391 0 0 0 8.663-6.276.997.997 0 0 1 1.357-.397.999.999 0 0 1 .398 1.356Z"></path>
</svg>
